<svg width="33" height="33" viewBox="0 0 33 33" fill="none" xmlns="http://www.w3.org/2000/svg">
<mask id="mask0_2710_3966" style="mask-type:alpha" maskUnits="userSpaceOnUse" x="0" y="0" width="33" height="33">
<rect x="0.298828" y="0.567657" width="32" height="32" fill="#D9D9D9"/>
</mask>
<g mask="url(#mask0_2710_3966)">
<path d="M23.6318 25.901H24.9652V22.5677H28.2985V21.2343H24.9652V17.901H23.6318V21.2343H20.2985V22.5677H23.6318V25.901ZM24.2985 28.5677C22.4541 28.5677 20.8818 27.9177 19.5818 26.6177C18.2818 25.3177 17.6318 23.7454 17.6318 21.901C17.6318 20.0566 18.2818 18.4843 19.5818 17.1843C20.8818 15.8843 22.4541 15.2343 24.2985 15.2343C26.1429 15.2343 27.7152 15.8843 29.0152 17.1843C30.3152 18.4843 30.9652 20.0566 30.9652 21.901C30.9652 23.7454 30.3152 25.3177 29.0152 26.6177C27.7152 27.9177 26.1429 28.5677 24.2985 28.5677ZM5.63184 25.901V9.901L16.2985 1.901L26.9652 9.901V12.9677C26.5429 12.8343 26.1096 12.7343 25.6652 12.6677C25.2207 12.601 24.7652 12.5677 24.2985 12.5677V11.2343L16.2985 5.23433L8.2985 11.2343V23.2343H15.0652C15.1318 23.701 15.2318 24.1566 15.3652 24.601C15.4985 25.0454 15.6652 25.4788 15.8652 25.901H5.63184Z" fill="white"/>
</g>
</svg>
