<svg width="146" height="69" viewBox="0 0 146 69" fill="none" xmlns="http://www.w3.org/2000/svg">
<path d="M20.243 25.6611C26.4842 25.6611 31.5617 30.7387 31.5617 36.9798C31.5617 43.221 26.4842 48.2985 20.243 48.2985C14.0019 48.2985 8.92433 43.221 8.92433 36.9798C8.92433 30.7387 14.0019 25.6611 20.243 25.6611ZM20.243 20.4932C11.1372 20.4932 3.75635 27.874 3.75635 36.9798C3.75635 46.0856 11.1372 53.4665 20.243 53.4665C29.3488 53.4665 36.7297 46.0856 36.7297 36.9798C36.7297 27.874 29.3488 20.4932 20.243 20.4932Z" fill="#07735E"/>
<path d="M110.051 34.2532C109.481 26.4987 103.006 20.3838 95.11 20.3838H93.7536C85.4787 20.3838 78.7734 27.0924 78.7734 35.3673C78.7734 36.1385 78.7734 37.6792 78.7734 38.4504C78.7734 46.7219 85.4787 53.4305 93.7536 53.4305H95.11C100.23 53.4305 104.752 50.8627 107.452 46.9403L103.255 44.1763C101.453 46.7338 98.4745 48.4093 95.11 48.4093H93.7536C88.5873 48.4093 84.327 44.4612 83.8356 39.4212H110.058C110.082 39.0987 110.09 38.7745 110.09 38.4487C110.09 38.4487 110.09 36.1368 110.09 35.3656C110.09 34.9937 110.076 34.6217 110.051 34.2532ZM83.851 34.2532C84.4055 29.2831 88.6351 25.4033 93.7519 25.4033H95.1082C100.225 25.4033 104.451 29.278 105.009 34.2532H83.851Z" fill="#07735E"/>
<path d="M145.961 34.2532C145.391 26.4987 138.916 20.3838 131.02 20.3838H129.663C121.388 20.3838 114.683 27.0924 114.683 35.3673C114.683 36.1385 114.683 37.6792 114.683 38.4504C114.683 46.7219 121.388 53.4305 129.663 53.4305H131.02C136.14 53.4305 140.661 50.8627 143.362 46.9403L139.165 44.1763C137.363 46.7338 134.384 48.4093 131.02 48.4093H129.663C124.497 48.4093 120.237 44.4612 119.745 39.4212H145.967C145.991 39.0987 146 38.7745 146 38.4487C146 38.4487 146 36.1368 146 35.3656C146 34.9937 145.986 34.6217 145.961 34.2532ZM119.761 34.2532C120.315 29.2831 124.545 25.4033 129.662 25.4033H131.018C136.135 25.4033 140.361 29.278 140.919 34.2532H119.761Z" fill="#07735E"/>
<path d="M46.0806 61.6203C45.8486 61.2006 45.393 60.0882 46.1659 58.87L50.6412 51.815C52.7807 52.8302 55.1711 53.3966 57.6945 53.3966C66.8003 53.3966 74.1812 46.0157 74.1812 36.9099C74.1812 31.7829 71.8403 27.2036 68.1721 24.182L71.0759 19.606L66.7116 16.8369L63.7156 21.5579C61.8507 20.8259 59.8204 20.4233 57.6945 20.4233C48.5887 20.4233 41.2078 27.8041 41.2078 36.9099C41.2078 41.6326 43.1938 45.8912 46.3741 48.8957L41.8033 56.1026C40.2404 58.5646 40.1483 61.5589 41.5525 64.113C42.9566 66.6672 45.5364 68.1908 48.4505 68.1908H74.1829V63.0228H48.4488C47.0054 63.0211 46.311 62.0418 46.0806 61.6203ZM46.3775 36.9099C46.3775 30.6688 51.455 25.5912 57.6945 25.5912C58.795 25.5912 59.8613 25.7499 60.8697 26.0451C62.569 26.5416 64.1046 27.4271 65.3722 28.5992C67.6107 30.6671 69.0149 33.6273 69.0149 36.9099C69.0149 43.1511 63.9374 48.2286 57.6962 48.2286C56.1931 48.2286 54.7582 47.9335 53.4444 47.3995C51.8133 46.7375 50.3716 45.7052 49.2234 44.4068C47.4524 42.4072 46.3775 39.7814 46.3775 36.9099Z" fill="#07735E"/>
<path d="M40.4856 19.51L36.645 22.9667C34.6198 20.718 32.1715 18.9572 29.3665 17.7339C25.4423 16.0243 22.2859 13.1392 20.242 9.60571C18.2014 13.1375 15.0433 16.0226 11.1191 17.7339C8.31414 18.9572 5.8658 20.7163 3.84058 22.9667L0 19.51C2.52171 16.7068 5.56722 14.5161 9.05291 12.9959C14.2806 10.7164 17.6588 5.6167 17.6588 0.00341566L22.8268 0C22.8268 5.6167 26.2033 10.7164 31.431 12.9959C34.9184 14.5161 37.9639 16.7068 40.4856 19.51Z" fill="#FAD35E"/>
</svg>
