<svg width="95" height="46" viewBox="0 0 95 46" fill="none" xmlns="http://www.w3.org/2000/svg">
<rect width="95" height="46" fill="#404040"/>
<rect width="1920" height="1080" transform="translate(-548 -314)" fill="#F2F4E6"/>
<g filter="url(#filter0_d_0_1)">
<rect x="-24" y="-23.0825" width="872" height="498.165" rx="16" fill="#FEFFF8" shape-rendering="crispEdges"/>
<path d="M13.0677 17.482C17.0964 17.482 20.3741 20.7597 20.3741 24.7885C20.3741 28.8173 17.0964 32.0949 13.0677 32.0949C9.03886 32.0949 5.76121 28.8173 5.76121 24.7885C5.76121 20.7597 9.03886 17.482 13.0677 17.482ZM13.0677 14.146C7.18968 14.146 2.42518 18.9105 2.42518 24.7885C2.42518 30.6664 7.18968 35.4309 13.0677 35.4309C18.9456 35.4309 23.7101 30.6664 23.7101 24.7885C23.7101 18.9105 18.9456 14.146 13.0677 14.146Z" fill="#06604E"/>
<path d="M71.0402 23.0296C70.6724 18.024 66.4927 14.0767 61.3956 14.0767H60.52C55.1784 14.0767 50.85 18.4072 50.85 23.7488C50.85 24.2467 50.85 25.2412 50.85 25.739C50.85 31.0784 55.1784 35.409 60.52 35.409H61.3956C64.7008 35.409 67.6194 33.7514 69.3628 31.2194L66.6535 29.4352C65.4904 31.0861 63.5674 32.1677 61.3956 32.1677H60.52C57.1851 32.1677 54.435 29.6191 54.1178 26.3657H71.0446C71.06 26.1575 71.0655 25.9483 71.0655 25.7379C71.0655 25.7379 71.0655 24.2456 71.0655 23.7477C71.0655 23.5076 71.0567 23.2675 71.0402 23.0296ZM54.1277 23.0296C54.4856 19.8214 57.2159 17.3169 60.5189 17.3169H61.3945C64.6974 17.3169 67.4255 19.8181 67.7857 23.0296H54.1277Z" fill="#06604E"/>
<path d="M94.2206 23.0296C93.8527 18.024 89.673 14.0767 84.5759 14.0767H83.7003C78.3587 14.0767 74.0304 18.4072 74.0304 23.7488C74.0304 24.2467 74.0304 25.2412 74.0304 25.739C74.0304 31.0784 78.3587 35.409 83.7003 35.409H84.5759C87.8811 35.409 90.7997 33.7514 92.5432 31.2194L89.8338 29.4352C88.6708 31.0861 86.7478 32.1677 84.5759 32.1677H83.7003C80.3654 32.1677 77.6153 29.6191 77.2981 26.3657H94.225C94.2404 26.1575 94.2459 25.9483 94.2459 25.7379C94.2459 25.7379 94.2459 24.2456 94.2459 23.7477C94.2459 23.5076 94.2371 23.2675 94.2206 23.0296ZM77.308 23.0296C77.666 19.8214 80.3963 17.3169 83.6992 17.3169H84.5748C87.8778 17.3169 90.6059 19.8181 90.966 23.0296H77.308Z" fill="#06604E"/>
<path d="M29.7456 40.6944C29.5958 40.4234 29.3018 39.7054 29.8007 38.919L32.6896 34.3648C34.0707 35.0202 35.6137 35.3858 37.2426 35.3858C43.1206 35.3858 47.8851 30.6213 47.8851 24.7433C47.8851 21.4337 46.374 18.4777 44.0061 16.5272L45.8806 13.5733L43.0633 11.7858L41.1293 14.8333C39.9255 14.3608 38.6149 14.1009 37.2426 14.1009C31.3646 14.1009 26.6001 18.8654 26.6001 24.7433C26.6001 27.7919 27.8821 30.5409 29.9351 32.4804L26.9845 37.1326C25.9757 38.7218 25.9162 40.6547 26.8226 42.3035C27.729 43.9522 29.3943 44.9357 31.2754 44.9357H47.8862V41.5997H31.2743C30.3426 41.5986 29.8943 40.9664 29.7456 40.6944ZM29.9373 24.7433C29.9373 20.7145 33.2149 17.4369 37.2426 17.4369C37.953 17.4369 38.6414 17.5393 39.2923 17.7298C40.3892 18.0503 41.3804 18.622 42.1988 19.3786C43.6437 20.7134 44.5502 22.6243 44.5502 24.7433C44.5502 28.7721 41.2725 32.0498 37.2437 32.0498C36.2734 32.0498 35.3472 31.8592 34.4991 31.5145C33.4462 31.0872 32.5156 30.4209 31.7744 29.5827C30.6311 28.2919 29.9373 26.5969 29.9373 24.7433Z" fill="#06604E"/>
<path d="M26.1343 13.5116L23.6551 15.7429C22.3478 14.2913 20.7673 13.1547 18.9567 12.3651C16.4235 11.2615 14.386 9.39908 13.0666 7.11816C11.7493 9.39798 9.71072 11.2604 7.17759 12.3651C5.36694 13.1547 3.78649 14.2902 2.47917 15.7429L0 13.5116C1.62782 11.702 3.59375 10.2879 5.84384 9.30657C9.21841 7.83515 11.3991 4.54317 11.3991 0.919685L14.7351 0.91748C14.7351 4.54317 16.9147 7.83515 20.2893 9.30657C22.5405 10.2879 24.5064 11.702 26.1343 13.5116Z" fill="#FAD35E"/>
</g>
<defs>
<filter id="filter0_d_0_1" x="-55" y="-54.0825" width="934" height="560.165" filterUnits="userSpaceOnUse" color-interpolation-filters="sRGB">
<feFlood flood-opacity="0" result="BackgroundImageFix"/>
<feColorMatrix in="SourceAlpha" type="matrix" values="0 0 0 0 0 0 0 0 0 0 0 0 0 0 0 0 0 0 127 0" result="hardAlpha"/>
<feOffset/>
<feGaussianBlur stdDeviation="15.5"/>
<feComposite in2="hardAlpha" operator="out"/>
<feColorMatrix type="matrix" values="0 0 0 0 0.0196078 0 0 0 0 0.301961 0 0 0 0 0.243137 0 0 0 0.15 0"/>
<feBlend mode="normal" in2="BackgroundImageFix" result="effect1_dropShadow_0_1"/>
<feBlend mode="normal" in="SourceGraphic" in2="effect1_dropShadow_0_1" result="shape"/>
</filter>
</defs>
</svg>
