<svg width="171" height="80" viewBox="0 0 171 80" fill="none" xmlns="http://www.w3.org/2000/svg">
<path d="M23.6648 30.0072C30.9607 30.0072 36.8964 35.9429 36.8964 43.2388C36.8964 50.5347 30.9607 56.4704 23.6648 56.4704C16.3689 56.4704 10.4332 50.5347 10.4332 43.2388C10.4332 35.9429 16.3689 30.0072 23.6648 30.0072ZM23.6648 23.9659C13.0201 23.9659 4.39186 32.5941 4.39186 43.2388C4.39186 53.8835 13.0201 62.5117 23.6648 62.5117C34.3095 62.5117 42.9377 53.8835 42.9377 43.2388C42.9377 32.5941 34.3095 23.9659 23.6648 23.9659Z" fill="#FEFFF8"/>
<path d="M128.65 40.0537C127.984 30.9886 120.415 23.8403 111.184 23.8403H109.598C99.9249 23.8403 92.0865 31.6827 92.0865 41.3561C92.0865 42.2576 92.0865 44.0587 92.0865 44.9602C92.0865 54.6295 99.9249 62.4719 109.598 62.4719H111.184C117.169 62.4719 122.455 59.4702 125.612 54.8848L120.706 51.6537C118.6 54.6435 115.117 56.6021 111.184 56.6021H109.598C103.559 56.6021 98.5787 51.9868 98.0042 46.095H128.658C128.686 45.7181 128.696 45.3391 128.696 44.9582C128.696 44.9582 128.696 42.2556 128.696 41.3541C128.696 40.9193 128.68 40.4845 128.65 40.0537ZM98.0222 40.0537C98.6704 34.2437 103.615 29.7082 109.596 29.7082H111.182C117.163 29.7082 122.104 34.2377 122.756 40.0537H98.0222Z" fill="#FEFFF8"/>
<path d="M170.628 40.0537C169.962 30.9886 162.393 23.8403 153.162 23.8403H151.577C141.903 23.8403 134.065 31.6827 134.065 41.3561C134.065 42.2576 134.065 44.0587 134.065 44.9602C134.065 54.6295 141.903 62.4719 151.577 62.4719H153.162C159.148 62.4719 164.433 59.4702 167.591 54.8848L162.684 51.6537C160.578 54.6435 157.095 56.6021 153.162 56.6021H151.577C145.537 56.6021 140.557 51.9868 139.983 46.095H170.636C170.664 45.7181 170.674 45.3391 170.674 44.9582C170.674 44.9582 170.674 42.2556 170.674 41.3541C170.674 40.9193 170.658 40.4845 170.628 40.0537ZM140.001 40.0537C140.649 34.2437 145.593 29.7082 151.575 29.7082H153.16C159.142 29.7082 164.082 34.2377 164.734 40.0537H140.001Z" fill="#FEFFF8"/>
<path d="M53.8677 72.0435C53.5964 71.5528 53.0639 70.2524 53.9674 68.8284L59.199 60.5811C61.7001 61.7678 64.4944 62.43 67.4443 62.43C78.089 62.43 86.7172 53.8017 86.7172 43.157C86.7172 37.1635 83.9808 31.8103 79.6926 28.278L83.0872 22.9287L77.9853 19.6917L74.4829 25.2105C72.3029 24.3548 69.9295 23.8841 67.4443 23.8841C56.7996 23.8841 48.1714 32.5124 48.1714 43.157C48.1714 48.6778 50.493 53.6561 54.2107 57.1685L48.8675 65.5933C47.0405 68.4713 46.9328 71.9717 48.5743 74.9575C50.2157 77.9433 53.2314 79.7243 56.6381 79.7243H86.7192V73.683H56.6361C54.9487 73.681 54.1369 72.5361 53.8677 72.0435ZM54.2147 43.157C54.2147 35.8611 60.1504 29.9255 67.4443 29.9255C68.7308 29.9255 69.9773 30.111 71.1561 30.456C73.1426 31.0364 74.9377 32.0716 76.4196 33.4418C79.0364 35.8591 80.6779 39.3196 80.6779 43.157C80.6779 50.453 74.7422 56.3886 67.4463 56.3886C65.6891 56.3886 64.0118 56.0436 62.476 55.4193C60.5692 54.6454 58.8839 53.4387 57.5416 51.9209C55.4713 49.5833 54.2147 46.5138 54.2147 43.157Z" fill="#FEFFF8"/>
<path d="M47.3277 22.817L42.838 26.8578C40.4706 24.2291 37.6084 22.1707 34.3295 20.7407C29.7421 18.7422 26.0523 15.3695 23.6628 11.2388C21.2774 15.3675 17.5856 18.7402 12.9982 20.7407C9.71923 22.1707 6.85712 24.2271 4.48964 26.8578L0 22.817C2.94788 19.54 6.50808 16.979 10.5829 15.2019C16.694 12.5373 20.6432 6.57569 20.6432 0.0137585L26.6845 0.00976562C26.6845 6.57569 30.6316 12.5373 36.7428 15.2019C40.8196 16.979 44.3798 19.54 47.3277 22.817Z" fill="#FAD35E"/>
</svg>
